<?xml version="1.0" encoding="UTF-8"?><svg id="b" xmlns="http://www.w3.org/2000/svg" width="900.96" height="1080" viewBox="0 0 900.96 1080"><g id="c"><rect width="900.63" height="180" fill="#010101"/><rect x=".33" y="900" width="898.5" height="180" fill="#010101"/><path d="M721.93,540c0-98.73,80.32-179.04,179.04-179.04v-181.93c-199.04,0-360.96,161.93-360.96,360.97s161.93,360.96,360.96,360.96v-181.93c-98.72,0-179.04-80.32-179.04-179.03Z" fill="#010101"/><path d="M179.04,539.99c0,98.73-80.32,179.04-179.04,179.04v181.93c199.04,0,360.96-161.93,360.96-360.97S199.04,179.03,0,179.03v181.93c98.72,0,179.04,80.32,179.04,179.03Z" fill="#010101"/></g></svg>