<?xml version="1.0" encoding="UTF-8"?>
<svg id="Capa_2" data-name="Capa 2" xmlns="http://www.w3.org/2000/svg" viewBox="0 0 1080 371.23">
  <defs>
    <style>
      .cls-1 {
        fill: #fff;
      }
    </style>
  </defs>
  <g id="Capa_1-2" data-name="Capa 1">
    <g>
      <polygon class="cls-1" points="133.02 93.4 29.38 90.23 29.38 5.15 226.49 5.15 133.02 93.4"/>
      <path class="cls-1" d="M315.54,243.89c0,25.08-6.98,47.18-20.89,66.23-13.93,19.08-32.66,34.04-56.21,44.87-23.53,10.82-49.91,16.24-79.14,16.24-35.4,0-66.16-6.88-92.29-20.64-26.11-13.73-48.46-35.38-67.01-64.95l77.83-53.1c5.85,9.97,12.9,18.48,21.14,25.51,8.26,7.05,17.37,12.63,27.34,16.77,9.97,4.12,20.96,6.18,32.99,6.18,10.65,0,20.11-1.36,28.37-4.12,8.24-2.76,14.86-6.95,19.83-12.63,5-5.67,7.48-12.63,7.48-20.89,0-8.94-2.76-16.07-8.26-21.39-5.5-5.32-12.45-9.19-20.86-11.6-8.44-2.41-17.63-3.62-27.59-3.62-4.82,0-9.97.43-15.47,1.28-5.5.88-10.67,2.06-15.47,3.62-4.82,1.56-9.29,3.54-13.41,5.93l-23.73-57.75,68.29-65.65h-.08L252.73,5.15h32.49l18.45,43.84-88.33,83.83c6.78,1.43,13.46,3.36,20.01,5.88,15.29,5.85,28.95,13.83,41,23.98,12.03,10.14,21.57,22.17,28.62,36.1,7.03,13.91,10.57,28.95,10.57,45.12Z"/>
      <polygon class="cls-1" points="1080 5.16 944.25 5.16 870.7 99.01 797.15 5.16 661.4 5.16 802.82 185.61 661.4 366.07 797.15 366.07 870.7 272.22 944.25 366.07 1080 366.07 938.57 185.61 1080 5.16"/>
      <g>
        <path class="cls-1" d="M565.45,366.01c-15.92,3.52-33.27,5.22-52.07,5.22s-36.86-1.76-53.1-5.32c-15.54-3.34-29.73-8.34-42.56-14.96-1.21-.6-2.41-1.23-3.59-1.88-26.99-14.79-47.38-36.1-61.11-63.95-13.76-27.84-20.61-61.01-20.61-99.5s6.15-72.01,20.61-99.5c1.88-3.57,3.84-6.98,5.87-10.24,28.87-46.15,88.88-62.64,136.63-36.48.2.13.43.23.63.35,5.87,3.26,11.35,6.83,16.44,10.8,15.09,11.6,26.89,26.29,35.88,44.46.03.03.03.08.05.1-9.97-5.67-21.69-8.49-35.15-8.49-14.19,0-26.51,2.96-36.91,8.89.08-.13.13-.28.2-.4-7.36,4.14-13.78,9.82-19.23,17.05-13.26,17-19.86,41.5-19.86,73.46,0,7.86.45,15.24,1.33,22.14,2.18,29.22,8.79,55.01,19.81,77.35,13.76,27.84,33.94,49.16,60.58,63.95,13.61,7.56,28.82,13.18,45.62,16.85.18.05.35.08.53.1Z"/>
        <path class="cls-1" d="M459.75,5.22c15.92-3.52,33.27-5.22,52.07-5.22s36.86,1.76,53.1,5.32c15.54,3.34,29.73,8.34,42.56,14.96,1.21.6,2.41,1.23,3.59,1.88,26.99,14.79,47.38,36.1,61.11,63.95,13.76,27.84,20.61,61.01,20.61,99.5s-6.15,72.01-20.61,99.5c-1.88,3.57-3.84,6.98-5.87,10.24-28.87,46.15-88.88,62.64-136.63,36.48-.2-.13-.43-.23-.63-.35-5.87-3.26-11.35-6.83-16.44-10.8-15.09-11.6-26.89-26.29-35.88-44.46-.03-.03-.03-.08-.05-.1,9.97,5.67,21.69,8.49,35.15,8.49,14.19,0,26.51-2.96,36.91-8.89-.08.13-.13.28-.2.4,7.36-4.14,13.78-9.82,19.23-17.05,13.26-17,19.86-41.5,19.86-73.46,0-7.86-.45-15.24-1.33-22.14-2.18-29.22-8.79-55.01-19.81-77.35-13.76-27.84-33.94-49.16-60.58-63.95-13.61-7.56-28.82-13.18-45.62-16.85-.18-.05-.35-.08-.53-.1Z"/>
      </g>
    </g>
  </g>
</svg>